<?xml version="1.0" encoding="utf-8"?>
<svg width="49.180176px" height="39.966797px" viewBox="0 0 49.180176 39.966797" version="1.1" xmlns:xlink="http://www.w3.org/1999/xlink" xmlns="http://www.w3.org/2000/svg">
  <path d="M49.1804 4.72984C47.3674 5.53476 45.4241 6.0752 43.3811 6.32051C45.4663 5.07097 47.0684 3.09318 47.8197 0.739757C45.8726 1.89347 43.7069 2.73288 41.411 3.18517C39.5712 1.2227 36.9495 0 34.048 0C28.4749 0 23.9558 4.5152 23.9558 10.0883C23.9558 10.8779 24.0478 11.6483 24.2203 12.388C15.8339 11.9664 8.40179 7.94951 3.42281 1.84364C2.55273 3.33849 2.05829 5.07097 2.05829 6.91845C2.05829 10.4179 3.83677 13.5073 6.54665 15.3202C4.89082 15.2666 3.33465 14.8105 1.97396 14.0554C1.97396 14.0975 1.97396 14.1397 1.97396 14.1819C1.97396 19.0727 5.45427 23.1471 10.0653 24.0785C9.22204 24.3085 8.32897 24.4311 7.40906 24.4311C6.75746 24.4311 6.12503 24.3698 5.50793 24.2471C6.79579 28.2526 10.5214 31.1771 14.9331 31.2576C11.4835 33.9636 7.13309 35.5735 2.40325 35.5735C1.58684 35.5735 0.785752 35.5275 0 35.4316C4.46153 38.2987 9.76632 39.966 15.4659 39.966C34.025 39.966 44.1746 24.5921 44.1746 11.2612C44.1746 10.8242 44.1631 10.3834 44.1477 9.95413C46.1179 8.53211 47.8274 6.75363 49.1804 4.72984L49.1804 4.72984Z" id="Shape-Copy" fill="#F3D8CF" stroke="none" />
</svg>